<svg xmlns="http://www.w3.org/2000/svg" version="1.1" xmlns:xlink="http://www.w3.org/1999/xlink" xmlns:svgjs="http://svgjs.com/svgjs" width="1440" height="560" preserveAspectRatio="none" viewBox="0 0 1440 560"><g mask="url(&quot;#SvgjsMask1020&quot;)" fill="none"><rect width="1440" height="560" x="0" y="0" fill="#0e2a47"></rect><path d="M 0,241 C 41.2,288.4 123.6,523.6 206,478 C 288.4,432.4 329.6,8.8 412,13 C 494.4,17.2 535.6,497.4 618,499 C 700.4,500.6 741.6,54.8 824,21 C 906.4,-12.8 947.6,323.4 1030,330 C 1112.4,336.6 1154,17.2 1236,54 C 1318,90.8 1399.2,422 1440,514L1440 560L0 560z" fill="rgba(93, 101, 249, 1)"></path><path d="M 0,86 C 57.6,144.4 172.8,370 288,378 C 403.2,386 460.8,125.8 576,126 C 691.2,126.2 748.8,351.2 864,379 C 979.2,406.8 1036.8,232.4 1152,265 C 1267.2,297.6 1382.4,486.6 1440,542L1440 560L0 560z" fill="#184a7e"></path><path d="M 0,422 C 96,382.4 288,218 480,224 C 672,230 768,447.6 960,452 C 1152,456.4 1344,287.2 1440,246L1440 560L0 560z" fill="#2264ab"></path></g><defs><mask id="SvgjsMask1020"><rect width="1440" height="560" fill="#ffffff"></rect></mask></defs></svg>